<?xml version="1.0" standalone="no"?>
<!DOCTYPE svg PUBLIC "-//W3C//DTD SVG 20010904//EN"
 "http://www.w3.org/TR/2001/REC-SVG-20010904/DTD/svg10.dtd">
<svg version="1.0" xmlns="http://www.w3.org/2000/svg"
 width="866.000000pt" height="650.000000pt" viewBox="0 0 866.000000 650.000000"
 preserveAspectRatio="xMidYMid meet">

<g transform="translate(0.000000,650.000000) scale(0.100000,-0.100000)"
fill="#000000" stroke="none">
<path d="M1392 3833 c-18 -35 -75 -290 -69 -306 6 -15 27 -17 177 -17 200 0
172 -24 221 184 28 117 31 139 19 147 -8 5 -88 9 -177 9 -145 0 -163 -2 -171
-17z"/>
<path d="M1852 3838 c-14 -18 -84 -306 -77 -318 4 -6 77 -10 180 -10 l173 0
11 33 c5 17 24 88 41 155 24 96 28 127 19 138 -16 19 -331 21 -347 2z"/>
<path d="M2503 3838 c-15 -19 -205 -757 -198 -768 4 -6 141 -10 365 -10 l359
0 17 56 c8 30 13 62 10 70 -4 12 -48 14 -266 14 -201 0 -260 3 -260 13 1 6 36
147 80 312 56 216 76 303 68 312 -14 18 -162 18 -175 1z"/>
<path d="M3414 3479 c-182 -226 -299 -380 -299 -393 0 -20 6 -21 86 -24 l87
-3 78 100 79 100 196 1 197 0 11 -47 c7 -27 18 -72 27 -100 l15 -53 90 0 c73
0 91 3 96 16 3 9 -38 186 -93 393 l-99 376 -86 3 -86 3 -299 -372z m386 -76
c0 -2 -54 -3 -120 -3 l-120 0 92 116 92 116 28 -114 c15 -62 28 -114 28 -115z"/>
<path d="M4139 3823 c-6 -16 -11 -46 -12 -68 l-2 -40 155 -5 c95 -3 154 -9
153 -15 0 -5 -36 -144 -78 -307 -43 -163 -75 -304 -71 -313 5 -13 20 -15 93
-13 l88 3 26 100 c15 55 50 190 78 300 29 110 56 210 61 223 9 22 13 22 170
22 l159 0 17 56 c8 30 13 62 10 70 -5 12 -68 14 -421 14 l-415 0 -11 -27z"/>
<path d="M5042 3838 c-15 -19 -34 -98 -28 -114 4 -11 36 -14 155 -14 82 0 152
-3 154 -7 2 -5 -32 -144 -76 -310 -44 -166 -77 -309 -73 -318 5 -13 21 -15 93
-13 l88 3 77 295 c42 162 81 306 85 320 l8 25 165 5 164 5 13 54 c8 30 12 60
9 67 -8 20 -818 21 -834 2z"/>
<path d="M5992 3838 c-15 -19 -204 -756 -197 -768 3 -6 46 -10 95 -10 l88 0
11 33 c5 17 40 147 76 287 36 140 77 297 91 349 14 52 23 100 20 108 -7 18
-169 19 -184 1z"/>
<path d="M6597 3834 c-180 -39 -326 -157 -388 -314 -30 -76 -38 -214 -15 -274
32 -84 122 -151 234 -175 70 -15 458 -15 468 0 13 21 32 107 25 117 -4 6 -89
11 -216 14 -195 3 -213 5 -257 26 -78 39 -96 110 -58 234 24 80 69 147 119
182 70 49 119 58 341 63 113 3 209 8 213 13 17 15 35 108 24 119 -17 17 -406
13 -490 -5z"/>
<path d="M7225 3838 c-18 -48 -186 -710 -188 -738 l-2 -35 390 0 390 0 14 52
c23 88 40 83 -284 83 l-285 0 1 23 c0 12 10 56 22 97 l22 75 270 5 269 5 14
48 c7 27 11 55 8 63 -4 12 -49 14 -260 14 -140 0 -257 4 -260 9 -3 4 5 44 17
87 l23 79 294 5 294 5 13 54 c8 30 12 60 9 67 -8 20 -764 21 -771 2z"/>
<path d="M1286 3412 c-12 -20 -76 -296 -72 -309 5 -11 40 -13 183 -11 l177 3
38 154 c20 85 35 158 32 162 -7 11 -351 12 -358 1z"/>
<path d="M1705 3270 c-20 -82 -35 -156 -31 -165 4 -13 33 -15 176 -15 199 0
174 -20 220 167 45 181 61 163 -149 163 l-179 0 -37 -150z"/>
</g>
</svg>
