<?xml version="1.0" encoding="UTF-8"?>
<svg version="1.1" xmlns="http://www.w3.org/2000/svg" width="225" height="225">
<path d="M0 0 C74.25 0 148.5 0 225 0 C225 74.25 225 148.5 225 225 C150.75 225 76.5 225 0 225 C0 150.75 0 76.5 0 0 Z " fill="#FCFBFB" transform="translate(0,0)"/>
<path d="M0 0 C0 41.91 0 83.82 0 127 C-74.25 127 -148.5 127 -225 127 C-225 120.4 -225 113.8 -225 107 C-221.24134794 105.12067397 -220.09603448 104.75088202 -216.15313721 104.75949097 C-214.69344765 104.75536697 -214.69344765 104.75536697 -213.20426941 104.75115967 C-211.61283867 104.7619455 -211.61283867 104.7619455 -209.98925781 104.77294922 C-208.30589073 104.77251114 -208.30589073 104.77251114 -206.58851624 104.77206421 C-202.87664069 104.77345829 -199.16496551 104.78902343 -195.453125 104.8046875 C-192.88051462 104.80841735 -190.30790283 104.81126445 -187.73529053 104.81326294 C-181.65446417 104.82012073 -175.57372058 104.83588599 -169.49292541 104.85596192 C-162.56915349 104.87832429 -155.64537812 104.88931519 -148.72157907 104.89935279 C-134.48101407 104.92025234 -120.24050959 104.95542622 -106 105 C-105.78935913 104.08976074 -105.78935913 104.08976074 -105.57446289 103.16113281 C-104.86172893 100.47982339 -103.70317986 98.21645307 -102.4375 95.75 C-101.98246094 94.85796875 -101.52742188 93.9659375 -101.05859375 93.046875 C-100.70925781 92.37140625 -100.35992187 91.6959375 -100 91 C-101.14045776 90.98598145 -101.14045776 90.98598145 -102.30395508 90.97167969 C-105.80741833 90.91741604 -109.30962552 90.83387935 -112.8125 90.75 C-114.6059082 90.72873047 -114.6059082 90.72873047 -116.43554688 90.70703125 C-127.23614096 90.41273713 -137.62267066 88.28308309 -145.5859375 80.4375 C-151.27604757 74.22001388 -153.56236334 68.3115027 -153.4375 59.875 C-153.42775146 59.12637695 -153.41800293 58.37775391 -153.40795898 57.60644531 C-153.18581823 50.55517077 -151.62970459 44.55339081 -149 38 C-148.49291504 36.73591309 -148.49291504 36.73591309 -147.97558594 35.44628906 C-146.81495886 32.58102204 -145.63253162 29.72608332 -144.4375 26.875 C-143.85560913 25.48619629 -143.85560913 25.48619629 -143.26196289 24.06933594 C-142.88547607 23.19825195 -142.50898926 22.32716797 -142.12109375 21.4296875 C-141.7852124 20.64835449 -141.44933105 19.86702148 -141.10327148 19.06201172 C-139.55630815 16.17074102 -137.92909543 14.46454771 -135 13 C-134.29848848 11.6846659 -133.63474075 10.34882408 -133 9 C-132.34 8.01 -131.68 7.02 -131 6 C-130.34 6 -129.68 6 -129 6 C-129 5.01 -129 4.02 -129 3 C-128.34 3 -127.68 3 -127 3 C-125.62302534 6.8249296 -126.37916257 10.05883204 -127 14 C-126.07775635 14.0093457 -125.1555127 14.01869141 -124.20532227 14.02832031 C-120.74381346 14.07265127 -117.28348541 14.13440298 -113.82250977 14.20751953 C-112.33206297 14.23553484 -110.84147297 14.25684494 -109.35083008 14.27099609 C-100.92632473 14.35572126 -93.40197744 14.46830807 -86 19 C-85.19046875 19.46921875 -84.3809375 19.9384375 -83.546875 20.421875 C-77.90388115 24.5927835 -74.23057537 29.3082739 -72 36 C-71.21099884 46.78677305 -71.68211118 55.93404218 -76.11376953 65.96972656 C-77.15076303 68.3453844 -78.11923871 70.74490946 -79.08984375 73.1484375 C-88.37125662 95.8280676 -88.37125662 95.8280676 -96 103 C-85.74979103 102.60576119 -76.56889855 97.52074072 -69.22265625 90.5078125 C-60.64918907 80.83441016 -55.27149877 70.13339875 -51 58 C-45.66943337 42.97850783 -39.83533986 29.00615261 -29 17 C-28.37480469 16.29359375 -27.74960938 15.5871875 -27.10546875 14.859375 C-20.06667145 7.34750171 -10.76996758 0 0 0 Z " fill="#FEFEFE" transform="translate(225,98)"/>
<path d="M0 0 C37.95 0 75.9 0 115 0 C112.48011801 1.67992133 110.30843015 2.74263713 107.5625 3.9375 C88.17243043 13.60426938 76.90877524 34.42684477 70.1953125 54.140625 C69.62786405 55.84297036 69.0627418 57.54609297 68.5 59.25 C62.74326079 76.52021762 53.15081111 91.65583548 36.859375 100.66015625 C31.77112472 103.04440467 27.6402573 104.26858368 22 104 C22.825 103.01 23.65 102.02 24.5 101 C31.4336491 91.70630602 35.86758259 80.55324514 40.375 69.9375 C40.70870605 69.15270264 41.04241211 68.36790527 41.38623047 67.55932617 C44.52825486 60.00958273 46.36117483 53.25391133 46.375 45.0625 C46.41173828 43.92264648 46.41173828 43.92264648 46.44921875 42.75976562 C46.47899112 36.94919161 44.97442614 32.94878651 42 28 C41.484375 27.13375 40.96875 26.2675 40.4375 25.375 C30.67697984 15.86474958 18.97050625 14.6999 6.0625 14.375 C4.80630859 14.33632812 3.55011719 14.29765625 2.25585938 14.2578125 C-0.82919678 14.16397049 -3.91457774 14.08091515 -7 14 C-4.69 9.38 -2.38 4.76 0 0 Z " fill="#8F0129" transform="translate(106,98)"/>
<path d="M0 0 C-1.2375 1.5159375 -1.2375 1.5159375 -2.5 3.0625 C-15.79909091 21.00225729 -26.46454791 45.42365787 -24 68 C-22.06043888 74.9580668 -18.08116836 80.14335446 -12 84 C-5.46495138 87.4389173 0.12466421 89.08123932 7.515625 89.31640625 C8.76601562 89.35830078 10.01640625 89.40019531 11.3046875 89.44335938 C12.60664062 89.48267578 13.90859375 89.52199219 15.25 89.5625 C17.22613281 89.62727539 17.22613281 89.62727539 19.2421875 89.69335938 C22.49466854 89.79941854 25.74732053 89.90021153 29 90 C26.69 94.62 24.38 99.24 22 104 C-15.62 104 -53.24 104 -92 104 C-89.57169709 102.38113139 -87.19015821 100.99950457 -84.625 99.625 C-81.11165877 97.69980326 -78.10442371 95.53998304 -75 93 C-74.34 93 -73.68 93 -73 93 C-72.73445313 92.41089844 -72.46890625 91.82179688 -72.1953125 91.21484375 C-70.96863174 88.94187646 -69.6558766 87.42206649 -67.875 85.5625 C-58.99606592 75.61069471 -53.18284881 63.51623651 -48.92749023 50.98632812 C-42.04359488 30.76389188 -33.03889262 13.34481139 -13.62109375 2.6953125 C-8.87140038 0.3646677 -5.27208904 -0.44868843 0 0 Z " fill="#8F0129" transform="translate(97,98)"/>
<path d="M0 0 C1.67334039 0.98879205 3.34151823 1.98648336 5 3 C7.78223378 2.30514736 7.78223378 2.30514736 10 1 C10.103125 1.78375 10.20625 2.5675 10.3125 3.375 C10.77595022 6.33045181 10.77595022 6.33045181 14 8 C14.7425 7.05125 15.485 6.1025 16.25 5.125 C19.82005556 0.90855556 19.82005556 0.90855556 23 0 C28.35968704 -0.42537199 31.66939687 -0.48854141 36 3 C40.73998095 8.2666455 41 10.60234662 41 18 C33.41 18 25.82 18 18 18 C20.18059833 24.84825895 20.18059833 24.84825895 24 27 C29.33468429 27.38464895 29.33468429 27.38464895 34 25 C34.495 23.515 34.495 23.515 35 22 C36.65 22 38.3 22 40 22 C39.70179167 25.57849992 39.25754642 26.76226484 36.5625 29.25 C31.80047556 32.50211425 27.69795392 32.92331808 22 32 C19.62638593 30.63626528 17.72119269 29.14312159 15.69140625 27.3125 C13.96179922 25.69347199 13.96179922 25.69347199 11 26 C11 25.01 11 24.02 11 23 C10.01 22.67 9.02 22.34 8 22 C7.690625 23.36125 7.690625 23.36125 7.375 24.75 C5.59926842 28.94718374 4.10650376 30.05874368 0 32 C-4.62967849 32.82492453 -8.65279955 32.49948987 -12.875 30.375 C-16.45957974 27.6507194 -17.67266007 26.29433508 -19 22 C-19.66561382 15.70948062 -19.67406963 10.37988767 -16 5 C-11.43965489 -0.27289903 -6.67945865 -0.73167215 0 0 Z " fill="#F8F8F8" transform="translate(165,44)"/>
<path d="M0 0 C4.97077318 1.96955164 8.01757242 3.77661126 10.1875 8.6875 C11.82240004 15.3528617 11.62119351 20.27415922 8.25390625 26.234375 C6.17295747 29.16455832 4.26957129 30.51943941 1 32 C-2.08056052 32.4661022 -4.93886109 32.61779349 -8 32 C-9.32 31.01 -10.64 30.02 -12 29 C-12.33 33.62 -12.66 38.24 -13 43 C-14.65 43 -16.3 43 -18 43 C-18 29.14 -18 15.28 -18 1 C-15.33333333 1 -12.66666667 1 -10 1 C-6.80273453 -0.59863274 -3.47829221 -0.3692042 0 0 Z " fill="#232223" transform="translate(120,44)"/>
<path d="M0 0 C4.14082455 1.78808333 6.43189313 4.3312759 9 8 C10 11 10 11 10 18 C2.41 18 -5.18 18 -13 18 C-10.81940167 24.84825895 -10.81940167 24.84825895 -7 27 C-1.66531571 27.38464895 -1.66531571 27.38464895 3 25 C3.33 24.01 3.66 23.02 4 22 C5.65 22 7.3 22 9 22 C8.70179167 25.57849992 8.25754642 26.76226484 5.5625 29.25 C0.79243048 32.50760845 -3.29496713 32.89540875 -9 32 C-12.98448944 29.90251831 -15.3671445 27.21068009 -17.4375 23.25 C-18.46691329 17.30227877 -19.04446499 12.16927343 -16.375 6.625 C-11.22235806 0.9299747 -7.50558954 -0.83395439 0 0 Z " fill="#211F20" transform="translate(196,44)"/>
<path d="M0 0 C11.22 0 22.44 0 34 0 C34 1.98 34 3.96 34 6 C29.38 6 24.76 6 20 6 C20 21.51 20 37.02 20 53 C17.69 53 15.38 53 13 53 C13 37.49 13 21.98 13 6 C8.71 6 4.42 6 0 6 C0 4.02 0 2.04 0 0 Z " fill="#212021" transform="translate(42,23)"/>
<path d="M0 0 C2.31 0 4.62 0 7 0 C7.01458252 1.11971191 7.02916504 2.23942383 7.04418945 3.39306641 C7.10234886 7.56428274 7.17958023 11.73496919 7.26245117 15.90576172 C7.29561773 17.70775729 7.32367525 19.50985467 7.34643555 21.31201172 C7.38013432 23.90896823 7.43245649 26.50499866 7.48828125 29.1015625 C7.49467117 29.9017984 7.5010611 30.7020343 7.50764465 31.52651978 C7.63402007 36.38086621 8.32464112 39.7907687 11 44 C13.70183055 45.35091528 16.11808206 45.33858058 19.125 45.5625 C20.22070312 45.64628906 21.31640625 45.73007813 22.4453125 45.81640625 C23.70988281 45.90728516 23.70988281 45.90728516 25 46 C25 48.31 25 50.62 25 53 C10.76056338 53.57042254 10.76056338 53.57042254 6 50 C2.81173925 46.80300428 0.17424163 43.77802755 -0.12025452 39.0827179 C-0.11803391 38.36101913 -0.11581329 37.63932037 -0.11352539 36.89575195 C-0.11344986 36.07512772 -0.11337433 35.25450348 -0.11329651 34.40901184 C-0.10813522 33.52767075 -0.10297394 32.64632965 -0.09765625 31.73828125 C-0.0962413 30.83248825 -0.09482635 29.92669525 -0.09336853 28.99345398 C-0.08777001 26.09976909 -0.07521781 23.20616151 -0.0625 20.3125 C-0.05748481 18.35091258 -0.05292193 16.38932394 -0.04882812 14.42773438 C-0.03780107 9.61845979 -0.02053747 4.809243 0 0 Z " fill="#1B1A1A" transform="translate(22,23)"/>
<path d="M0 0 C2.8296457 1.37424476 3.91168723 2.51660103 6 5 C6 6.32 6 7.64 6 9 C3.12208578 8.60028969 1.35279138 8.28450918 -0.9375 6.4375 C-3.72734218 4.49306454 -5.67170753 4.71058326 -9 5 C-9.99 5.495 -9.99 5.495 -11 6 C-10.67 7.65 -10.34 9.3 -10 11 C-9.11957031 11.24234375 -8.23914063 11.4846875 -7.33203125 11.734375 C-6.17058594 12.06953125 -5.00914063 12.4046875 -3.8125 12.75 C-2.66394531 13.07484375 -1.51539062 13.3996875 -0.33203125 13.734375 C3.16306661 15.06193855 5.39034121 16.32692894 8 19 C8.74908051 22.22331611 8.18713374 24.93370669 7 28 C2.42114531 31.99432004 -1.63393538 32.60449249 -7.62890625 32.3125 C-11.06541626 31.8595827 -13.24770176 31.13303114 -16 29 C-17.375 25.3125 -17.375 25.3125 -18 22 C-16.35 22 -14.7 22 -13 22 C-12.71125 22.639375 -12.4225 23.27875 -12.125 23.9375 C-11.17176549 26.15206079 -11.17176549 26.15206079 -9 27 C-3.11834264 27.46588282 -3.11834264 27.46588282 2 25 C2 23.68 2 22.36 2 21 C0.79601562 20.59007813 -0.40796875 20.18015625 -1.6484375 19.7578125 C-3.22406356 19.21384636 -4.79957868 18.66955882 -6.375 18.125 C-7.1690625 17.85558594 -7.963125 17.58617188 -8.78125 17.30859375 C-9.54179688 17.04433594 -10.30234375 16.78007813 -11.0859375 16.5078125 C-11.7876709 16.26691895 -12.4894043 16.02602539 -13.21240234 15.77783203 C-15 15 -15 15 -17 13 C-17.40463307 9.91467283 -17.61747875 7.96276503 -17 5 C-12.509278 -0.82580151 -7.05208433 -1.31638908 0 0 Z " fill="#222222" transform="translate(89,44)"/>
<path d="M0 0 C2.875 1.875 2.875 1.875 5 5 C5.790725 9.9681401 5.65663419 14.39124623 3.75 19.0625 C1.80792916 21.21264986 0.79828761 22.22269789 -2 23 C-5.96982998 22.92911018 -8.23249449 22.57070922 -11.4375 20.1875 C-13.86889347 15.22745732 -13.75680936 10.41755613 -13 5 C-9.73632241 -0.73957093 -6.25533846 -1.75149477 0 0 Z " fill="#F6F6F6" transform="translate(120,49)"/>
<path d="M0 0 C2.1650775 1.783005 3.69293726 3.33810485 5.125 5.75 C5.125 6.74 5.125 7.73 5.125 8.75 C2.9375 9.0625 2.9375 9.0625 0.125 8.75 C-0.65875 7.904375 -1.4425 7.05875 -2.25 6.1875 C-4.72069899 3.33889413 -4.72069899 3.33889413 -8.5 3.75 C-12.35720462 4.88295663 -12.35720462 4.88295663 -14.875 7.75 C-16.50686199 12.64558597 -16.71431781 16.99506275 -14.5 21.625 C-12.90391081 23.80919833 -12.90391081 23.80919833 -10.875 25.75 C-7.54421703 26.11204163 -5.53331721 26.10584714 -2.5625 24.5 C-0.70156057 22.57013689 -0.23697896 21.37434747 0.125 18.75 C2.105 18.75 4.085 18.75 6.125 18.75 C5.26071055 22.83573194 4.69591757 25.20762831 1.625 28.125 C-2.95381673 31.10123087 -6.47566865 31.37741821 -11.875 30.75 C-15.754396 29.45192294 -18.32583556 27.47631425 -20.8125 24.1875 C-22.68070183 18.14331761 -22.79416426 12.27770171 -20.625 6.3125 C-15.57595442 -1.08074532 -8.4694314 -3.68236148 0 0 Z " fill="#222121" transform="translate(167.875,45.25)"/>
<path d="M0 0 C1.32 0.33 2.64 0.66 4 1 C3.01 1 2.02 1 1 1 C1 8.92 1 16.84 1 25 C2.65 24.01 4.3 23.02 6 22 C6.639375 22.66 7.27875 23.32 7.9375 24 C11.51549909 26.33665246 13.58713626 26.63366784 17.7734375 26.47265625 C21.50909941 25.67964732 23.36972385 23.69771913 26 21 C26.33 21.99 26.66 22.98 27 24 C24.74217029 27.42855623 22.78820681 29.46255592 19 31 C16.78125 31.30078125 16.78125 31.30078125 14.5 31.3125 C13.37078125 31.33763672 13.37078125 31.33763672 12.21875 31.36328125 C10 31 10 31 6 28 C5.67 32.62 5.34 37.24 5 42 C3.35 42 1.7 42 0 42 C0 28.14 0 14.28 0 0 Z " fill="#111111" transform="translate(102,45)"/>
<path d="M0 0 C-0.825 1.010625 -1.65 2.02125 -2.5 3.0625 C-7.15149143 9.21626737 -10.48986266 16.15790488 -14 23 C-14.66 22.67 -15.32 22.34 -16 22 C-15.67 18.7 -15.34 15.4 -15 12 C-16.98 12.99 -16.98 12.99 -19 14 C-19 13.34 -19 12.68 -19 12 C-20.65 11.67 -22.3 11.34 -24 11 C-18.31880625 4.10140758 -9.07793432 -1.23790013 0 0 Z " fill="#84092B" transform="translate(97,98)"/>
<path d="M0 0 C5.94 1.98 11.88 3.96 18 6 C18.33 7.65 18.66 9.3 19 11 C16.47374321 13.52625679 14.48536865 14.27493616 11 14.4375 C7.86823531 14.32648595 7.11971666 14.0897875 4.5 12.125 C3 10 3 10 3 8 C1.35 8 -0.3 8 -2 8 C-1.125 1.125 -1.125 1.125 0 0 Z " fill="#ECEBEB" transform="translate(73,58)"/>
<path d="M0 0 C7.59 0 15.18 0 23 0 C23 1.98 23 3.96 23 6 C22.67 5.34 22.34 4.68 22 4 C20.35 4 18.7 4 17 4 C16.896875 4.61875 16.79375 5.2375 16.6875 5.875 C16 8 16 8 13 10 C8.94228906 10.45085677 6.70675074 10.39946781 3.125 8.375 C1 6 1 6 0 0 Z " fill="#F8F7F7" transform="translate(183,62)"/>
<path d="M0 0 C0.66 0.33 1.32 0.66 2 1 C1.34 2.98 0.68 4.96 0 7 C1.63861275 8.63861275 3.55340843 8.18610178 5.8125 8.24609375 C7.30330078 8.29540039 7.30330078 8.29540039 8.82421875 8.34570312 C10.91007168 8.40599531 12.99601112 8.46337862 15.08203125 8.51757812 C27.29621571 8.93307991 35.26985757 11.09060664 44.5625 19.25 C46 21 46 21 46 23 C46.66 23.33 47.32 23.66 48 24 C48 24.99 48 25.98 48 27 C49.32 27.33 50.64 27.66 52 28 C51.83701416 28.57524414 51.67402832 29.15048828 51.50610352 29.74316406 C51.00962472 31.95708107 50.88520256 33.84673797 50.90234375 36.109375 C50.90556641 36.86347656 50.90878906 37.61757812 50.91210938 38.39453125 C50.92048828 39.17183594 50.92886719 39.94914062 50.9375 40.75 C50.94201172 41.54277344 50.94652344 42.33554688 50.95117188 43.15234375 C50.96291435 45.10159508 50.98084854 47.05080738 51 49 C50.67 49 50.34 49 50 49 C49.90203125 47.865625 49.8040625 46.73125 49.703125 45.5625 C48.69580009 34.22222401 48.69580009 34.22222401 44 24 C43.484375 23.13375 42.96875 22.2675 42.4375 21.375 C32.67697984 11.86474958 20.97050625 10.6999 8.0625 10.375 C6.80630859 10.33632812 5.55011719 10.29765625 4.25585938 10.2578125 C1.17071574 10.16396783 -1.91442865 10.07827684 -5 10 C-3.35 6.7 -1.7 3.4 0 0 Z " fill="#791631" transform="translate(104,102)"/>
<path d="M0 0 C5.94 0 11.88 0 18 0 C18 0.33 18 0.66 18 1 C12.39 1 6.78 1 1 1 C1.433125 2.27875 1.86625 3.5575 2.3125 4.875 C2.55613281 5.59429687 2.79976562 6.31359375 3.05078125 7.0546875 C3.96335547 9.33994905 3.96335547 9.33994905 7 11 C12.33468429 11.38464895 12.33468429 11.38464895 17 9 C17.33 8.01 17.66 7.02 18 6 C19.65 6 21.3 6 23 6 C22.70179167 9.57849992 22.25754642 10.76226484 19.5625 13.25 C14.78003557 16.51607327 10.71739815 16.87171093 5 16 C1.05574651 14.11767866 -1.37431015 11.72555721 -2.87109375 7.59765625 C-3.37562581 5.39511283 -3.7555358 3.2450794 -4 1 C-2.68 1.33 -1.36 1.66 0 2 C0 1.34 0 0.68 0 0 Z " fill="#181717" transform="translate(182,60)"/>
<path d="M0 0 C1.8125 1.125 1.8125 1.125 3 3 C3.63636364 8.93939394 3.63636364 8.93939394 1.875 11.875 C-0.79921957 13.47953174 -2.88967921 13.87304813 -6 14 C-8.3125 13 -8.3125 13 -10 11 C-11 7.5625 -11 7.5625 -11 4 C-7.66376318 -0.37162066 -5.2641262 -1.54071986 0 0 Z " fill="#989898" transform="translate(217,33)"/>
<path d="M0 0 C10.89 0 21.78 0 33 0 C33 1.98 33 3.96 33 6 C28.38 6 23.76 6 19 6 C19 21.51 19 37.02 19 53 C17.02 53 15.04 53 13 53 C13 52.67 13 52.34 13 52 C14.65 52 16.3 52 18 52 C17.67 35.5 17.34 19 17 2 C12.38 2 7.76 2 3 2 C2.01 1.34 1.02 0.68 0 0 Z " fill="#111011" transform="translate(43,23)"/>
<path d="M0 0 C0.66 0.99 1.32 1.98 2 3 C0.38371879 6.23256243 -2.76993715 6.67336704 -6 8 C-6.33 8.33 -6.66 8.66 -7 9 C27.32 9 61.64 9 97 9 C97 9.66 97 10.32 97 11 C59.38 11 21.76 11 -17 11 C-14.57169709 9.38113139 -12.19015821 7.99950457 -9.625 6.625 C-6.12259621 4.69953495 -3.02538149 2.63500968 0 0 Z " fill="#6B0825" transform="translate(22,191)"/>
<path d="M0 0 C1.65 0 3.3 0 5 0 C5 9.9 5 19.8 5 30 C3.35 30 1.7 30 0 30 C0 20.1 0 10.2 0 0 Z " fill="#232323" transform="translate(136,46)"/>
<path d="M0 0 C2.3431213 0.25561323 4.67843403 0.59270772 7 1 C7.33 1.66 7.66 2.32 8 3 C9.65 2.67 11.3 2.34 13 2 C12.44954271 7.64218718 11.09907941 9.57661103 8 15 C20.87 15.495 20.87 15.495 34 16 C34 16.33 34 16.66 34 17 C24.76 17 15.52 17 6 17 C4.84133277 12.36533108 5.29989006 9.66739961 6 5 C5.34 5 4.68 5 4 5 C4 5.99 4 6.98 4 8 C3.34 8 2.68 8 2 8 C1.87625 8.639375 1.7525 9.27875 1.625 9.9375 C1.41875 10.618125 1.2125 11.29875 1 12 C0.01 12.495 0.01 12.495 -1 13 C-1 13.99 -1 14.98 -1 16 C-2.32 16.33 -3.64 16.66 -5 17 C-3.09663714 11.60713857 -0.27697133 6.84927419 4 3 C2.68 2.67 1.36 2.34 0 2 C0 1.34 0 0.68 0 0 Z " fill="#F3DCE3" transform="translate(92,96)"/>
<path d="M0 0 C0.5775 0.639375 1.155 1.27875 1.75 1.9375 C6.56040091 4.99025442 11.40562954 4.82155118 17 5 C17 7.31 17 9.62 17 12 C14.9377952 12.054348 12.87517184 12.09294961 10.8125 12.125 C9.66394531 12.14820312 8.51539063 12.17140625 7.33203125 12.1953125 C4.08259628 12.00484152 1.91339479 11.39360127 -1 10 C-0.79375 9.4225 -0.5875 8.845 -0.375 8.25 C0.08661261 5.48032433 -0.57055055 4.35438733 -2 2 C-1.34 2 -0.68 2 0 2 C0 1.34 0 0.68 0 0 Z " fill="#363536" transform="translate(30,64)"/>
<path d="M0 0 C0.66 0.33 1.32 0.66 2 1 C0.7580581 3.25478773 -0.49307621 5.50358301 -1.75 7.75 C-2.09804687 8.38421875 -2.44609375 9.0184375 -2.8046875 9.671875 C-4.84358894 13.29658867 -6.85818887 16.19784412 -10 19 C-9.01 19.66 -8.02 20.32 -7 21 C-8.65 21 -10.3 21 -12 21 C-12 20.01 -12 19.02 -12 18 C-13.32 18.99 -14.64 19.98 -16 21 C-16.33 20.01 -16.66 19.02 -17 18 C-17.66 18.99 -18.32 19.98 -19 21 C-19 16.83588785 -18.38740919 15.33607747 -16.5 11.75 C-16.0359375 10.85796875 -15.571875 9.9659375 -15.09375 9.046875 C-14.7328125 8.37140625 -14.371875 7.6959375 -14 7 C-13.01 7 -12.02 7 -11 7 C-10.67 8.65 -10.34 10.3 -10 12 C-9.34 12 -8.68 12 -8 12 C-7.60167969 11.14148438 -7.60167969 11.14148438 -7.1953125 10.265625 C-5.94323109 7.8923988 -4.5063648 5.87786714 -2.875 3.75 C-2.33617187 3.04359375 -1.79734375 2.3371875 -1.2421875 1.609375 C-0.83226562 1.07828125 -0.42234375 0.5471875 0 0 Z " fill="#F6E7EB" transform="translate(139,182)"/>
<path d="M0 0 C37.62 0 75.24 0 114 0 C110.80106814 2.13262124 108.77001757 2.59021548 105 3 C104.505 2.505 104.505 2.505 104 2 C102.6465941 1.90468837 101.28826016 1.8781128 99.9315033 1.87974548 C99.05505661 1.87837082 98.17860992 1.87699615 97.27560425 1.87557983 C96.30672272 1.87917511 95.33784119 1.88277039 94.33959961 1.88647461 C93.32508224 1.88632858 92.31056488 1.88618256 91.26530457 1.8860321 C87.89429627 1.88673171 84.52334246 1.89452632 81.15234375 1.90234375 C78.82206757 1.90420776 76.491791 1.90563174 74.16151428 1.90663147 C68.01462735 1.91045798 61.86776387 1.9202894 55.72088623 1.93133545 C49.45390134 1.94154671 43.18691268 1.94612848 36.91992188 1.95117188 C24.61327092 1.96191155 12.30663741 1.97898956 0 2 C0 1.34 0 0.68 0 0 Z " fill="#65071F" transform="translate(107,98)"/>
<path d="M0 0 C2.5 2.375 2.5 2.375 4 5 C4 5.99 4 6.98 4 8 C-1.94 8 -7.88 8 -14 8 C-12 2 -12 2 -10.375 0.0625 C-6.81621109 -1.52958978 -3.60731185 -1.22707739 0 0 Z " fill="#EBE9EA" transform="translate(197,49)"/>
<path d="M0 0 C-0.33 0.99 -0.66 1.98 -1 3 C-1.11322825 4.4264314 -1.17595476 5.8572249 -1.20532227 7.2878418 C-1.22526749 8.14850754 -1.24521271 9.00917328 -1.26576233 9.8959198 C-1.29083107 11.28355278 -1.29083107 11.28355278 -1.31640625 12.69921875 C-1.33718735 13.64940384 -1.35796844 14.59958893 -1.37937927 15.5785675 C-1.44478052 18.61480456 -1.50371604 21.65112831 -1.5625 24.6875 C-1.60569417 26.74545169 -1.64930876 28.80339459 -1.69335938 30.86132812 C-1.80045231 35.90746316 -1.90174646 40.95368543 -2 46 C-2.99 46.495 -2.99 46.495 -4 47 C-4 31.49 -4 15.98 -4 0 C-7.96 0 -11.92 0 -16 0 C-16 -0.33 -16 -0.66 -16 -1 C-13.89722877 -1.22197585 -11.79267698 -1.42713637 -9.6875 -1.625 C-8.51574219 -1.74101562 -7.34398437 -1.85703125 -6.13671875 -1.9765625 C-3 -2 -3 -2 0 0 Z " fill="#393838" transform="translate(59,29)"/>
<path d="M0 0 C0.66 0 1.32 0 2 0 C3.18048211 3.54144633 2.7885088 4.16611883 1.3828125 7.4921875 C1.02316406 8.36230469 0.66351563 9.23242188 0.29296875 10.12890625 C-0.28517578 11.48822266 -0.28517578 11.48822266 -0.875 12.875 C-1.62637299 14.66239581 -2.37389792 16.45141511 -3.1171875 18.2421875 C-3.45347168 19.0347998 -3.78975586 19.82741211 -4.13623047 20.64404297 C-6.04631003 25.85384166 -6.18272254 30.93864413 -6.1875 36.4375 C-6.19974609 37.17548828 -6.21199219 37.91347656 -6.22460938 38.67382812 C-6.23662121 43.17826622 -5.70153822 46.75624263 -4 51 C-5.9375 50.1875 -5.9375 50.1875 -8 49 C-9.23936531 45.28190407 -9.19084808 41.81081027 -9.1875 37.9375 C-9.1884668 36.79873413 -9.1884668 36.79873413 -9.18945312 35.63696289 C-9.1358424 29.91462713 -8.52308404 24.5347786 -7 19 C-6.34 19 -5.68 19 -5 19 C-4.814375 18.01 -4.814375 18.01 -4.625 17 C-3.85479462 13.30301417 -2.93049337 9.65994058 -2 6 C-1.34 6 -0.68 6 0 6 C0 4.02 0 2.04 0 0 Z " fill="#73102B" transform="translate(79,121)"/>
<path d="M0 0 C0.66 0.33 1.32 0.66 2 1 C3.81278094 6.57778749 2.05075703 10.78621095 0 16 C-0.66 16 -1.32 16 -2 16 C-2 20.95 -2 25.9 -2 31 C-1.01 30.67 -0.02 30.34 1 30 C1 31.32 1 32.64 1 34 C1.99 34.33 2.98 34.66 4 35 C4 35.66 4 36.32 4 37 C2.02 37.495 2.02 37.495 0 38 C-5.16686283 30.41117021 -5.04331022 21.85609865 -4 13 C-3.10280373 8.52469958 -1.65537586 4.24929071 0 0 Z " fill="#F4E0E6" transform="translate(76,136)"/>
<path d="M0 0 C1.05609899 3.16829698 1.13055309 3.98519175 0 7 C-1.4375 8.75 -1.4375 8.75 -3 10 C-3.66 10 -4.32 10 -5 10 C-5 10.66 -5 11.32 -5 12 C-5.99 12 -6.98 12 -8 12 C-8 12.99 -8 13.98 -8 15 C-8.66 15 -9.32 15 -10 15 C-10.06058594 15.61488281 -10.12117188 16.22976562 -10.18359375 16.86328125 C-10.26738281 17.67152344 -10.35117187 18.47976562 -10.4375 19.3125 C-10.51871094 20.11300781 -10.59992187 20.91351563 -10.68359375 21.73828125 C-11 24 -11 24 -12 27 C-12.66 27 -13.32 27 -14 27 C-14 26.01 -14 25.02 -14 24 C-14.66 24.99 -15.32 25.98 -16 27 C-17 24 -17 24 -15.8828125 21.46875 C-11.326072 13.7729216 -6.35813007 6.35813007 0 0 Z " fill="#791833" transform="translate(71,109)"/>
<path d="M0 0 C0.66 0.33 1.32 0.66 2 1 C2.89214652 3.67643957 3.13540211 5.25384378 3.125 8 C3.12757813 8.680625 3.13015625 9.36125 3.1328125 10.0625 C3 12 3 12 2 15 C0.25 16 0.25 16 -2 17 C-3.67334039 17.98879205 -5.34151823 18.98648336 -7 20 C-6.690625 19.401875 -6.38125 18.80375 -6.0625 18.1875 C-4.28487338 14.52768048 -3.76838563 11.33039692 -3.4375 7.3125 C-3.31181641 5.82169922 -3.31181641 5.82169922 -3.18359375 4.30078125 C-3.12300781 3.54152344 -3.06242187 2.78226563 -3 2 C-2.34 2 -1.68 2 -1 2 C-0.67 1.34 -0.34 0.68 0 0 Z " fill="#2C2C2C" transform="translate(128,52)"/>
<path d="M0 0 C0.99 0.495 0.99 0.495 2 1 C4.33849534 1.0922065 6.67971042 1.11749202 9.02001953 1.11352539 C9.74207581 1.11367142 10.46413208 1.11381744 11.20806885 1.1139679 C13.59968041 1.11327007 15.99121451 1.10548375 18.3828125 1.09765625 C20.03905189 1.09579161 21.69529184 1.09436792 23.35153198 1.09336853 C27.71467608 1.08954699 32.077787 1.07971978 36.44091797 1.06866455 C40.89159699 1.05844264 45.34228137 1.05386924 49.79296875 1.04882812 C58.52866108 1.0380972 67.26432641 1.02102512 76 1 C72.47654021 3.17593098 69.66352556 3.23778298 65.56665039 3.21118164 C64.26172134 3.20780289 62.9567923 3.20442413 61.61231995 3.20094299 C60.19076482 3.18740624 58.76921027 3.17380919 57.34765625 3.16015625 C55.88561905 3.15388198 54.42357708 3.14864317 52.96153259 3.14439392 C49.11483952 3.13110227 45.26830576 3.10667955 41.42169189 3.07904053 C35.26872477 3.03590147 29.11571617 3.00614252 22.96264458 2.9829998 C20.81724413 2.97280867 18.67197608 2.95575339 16.52662659 2.93800354 C15.21854538 2.93147263 13.91046417 2.92494171 12.56274414 2.91821289 C11.41342911 2.90995987 10.26411407 2.90170685 9.07997131 2.89320374 C6.26014184 2.99097973 3.73956957 3.35124775 1 4 C0.67 2.68 0.34 1.36 0 0 Z " fill="#810326" transform="translate(106,98)"/>
<path d="M0 0 C0.99 0.33 1.98 0.66 3 1 C-5.33709157 14.78534289 -5.33709157 14.78534289 -11 20 C-11.66 20 -12.32 20 -13 20 C-13.33 19.01 -13.66 18.02 -14 17 C-13.34 17 -12.68 17 -12 17 C-11.773125 15.948125 -11.54625 14.89625 -11.3125 13.8125 C-10.17849732 9.82729059 -8.24965476 7.61557579 -5 5 C-4.01 5 -3.02 5 -2 5 C-1.34 3.35 -0.68 1.7 0 0 Z " fill="#F5F8F8" transform="translate(35,171)"/>
<path d="M0 0 C0.33 1.32 0.66 2.64 1 4 C0.34 4 -0.32 4 -1 4 C-0.67 4.99 -0.34 5.98 0 7 C-0.99 7 -1.98 7 -3 7 C-6.47236738 10.33347269 -7.01581257 14.45759646 -8 19 C-8.66 19 -9.32 19 -10 19 C-10.7115625 20.2375 -10.7115625 20.2375 -11.4375 21.5 C-12.2109375 22.7375 -12.2109375 22.7375 -13 24 C-13.99 24 -14.98 24 -16 24 C-14.65020933 19.21437855 -12.54852289 15.45238997 -9.6875 11.4375 C-9.11999023 10.61088867 -9.11999023 10.61088867 -8.54101562 9.76757812 C-5.97941167 6.11371665 -3.21793407 3.05846123 0 0 Z " fill="#F3DDE3" transform="translate(199,112)"/>
<path d="M0 0 C1.5 1.375 1.5 1.375 3 3 C3 3.66 3 4.32 3 5 C3.66 5 4.32 5 5 5 C5 5.99 5 6.98 5 8 C-2.59 8 -10.18 8 -18 8 C-17.67 6.68 -17.34 5.36 -17 4 C-11.39 4 -5.78 4 0 4 C0 2.68 0 1.36 0 0 Z " fill="#3A3839" transform="translate(201,54)"/>
<path d="M0 0 C0 0.99 0 1.98 0 3 C0.185625 3.845625 0.37125 4.69125 0.5625 5.5625 C1 8 1 8 0 10 C5.94 10 11.88 10 18 10 C18 10.33 18 10.66 18 11 C16.79601562 11.03738281 15.59203125 11.07476562 14.3515625 11.11328125 C12.77600989 11.17892928 11.20049046 11.24537701 9.625 11.3125 C8.8309375 11.33505859 8.036875 11.35761719 7.21875 11.38085938 C5.13784419 11.47785075 3.06558668 11.72994825 1 12 C0.01 13.485 0.01 13.485 -1 15 C-2.32 14.67 -3.64 14.34 -5 14 C-5.45772527 8.27843418 -4.54034087 5.50588838 -1 1 C-0.67 0.67 -0.34 0.34 0 0 Z " fill="#2A2829" transform="translate(183,47)"/>
<path d="M0 0 C1.32 0.33 2.64 0.66 4 1 C1.55859375 6.37109375 1.55859375 6.37109375 0 8 C-4.97278634 8.95449958 -9.85595849 9.13564023 -14.90234375 9.09765625 C-15.6249086 9.0962413 -16.34747345 9.09482635 -17.0919342 9.09336853 C-19.37383365 9.08782225 -21.65563079 9.0752802 -23.9375 9.0625 C-25.49544128 9.05747804 -27.05338412 9.05291636 -28.61132812 9.04882812 C-32.40759081 9.0378705 -36.20377813 9.02064372 -40 9 C-40 8.67 -40 8.34 -40 8 C-30.39913555 7.34192361 -20.89683198 6.8926689 -11.26953125 7.0625 C-8.07715411 7.00147487 -5.13011059 6.60797292 -2 6 C-1.34 4.02 -0.68 2.04 0 0 Z " fill="#85042B" transform="translate(120,192)"/>
<path d="M0 0 C4.25836619 4.25836619 3.28937719 10.29684823 3.33007812 15.93505859 C3.25051383 22.54022083 1.93974405 28.04176876 -1 34 C-1.66 34 -2.32 34 -3 34 C-2.690625 33.34 -2.38125 32.68 -2.0625 32 C0.91886046 23.58204105 1.28504041 12.60250508 -1 4 C-0.5625 1.75 -0.5625 1.75 0 0 Z " fill="#FDF4F6" transform="translate(150,129)"/>
<path d="M0 0 C1.32 0.33 2.64 0.66 4 1 C3.30519531 1.54140625 2.61039063 2.0828125 1.89453125 2.640625 C-1.28724339 5.23413632 -4.30170312 7.96236061 -7.3125 10.75 C-7.86228516 11.25660156 -8.41207031 11.76320313 -8.97851562 12.28515625 C-10.32035412 13.5219813 -11.66036721 14.76078625 -13 16 C-13.33 14.68 -13.66 13.36 -14 12 C-12.68 11.67 -11.36 11.34 -10 11 C-9.67 9.35 -9.34 7.7 -9 6 C-8.01 5.67 -7.02 5.34 -6 5 C-6 4.01 -6 3.02 -6 2 C-4.02 2 -2.04 2 0 2 C0 1.34 0 0.68 0 0 Z " fill="#7E1430" transform="translate(209,100)"/>
<path d="M0 0 C0.919102 3.24388943 1.28279255 6.39351063 1.5625 9.75 C1.64628906 10.73484375 1.73007813 11.7196875 1.81640625 12.734375 C1.87699219 13.48203125 1.93757812 14.2296875 2 15 C-0.64 15.33 -3.28 15.66 -6 16 C-6.33 15.34 -6.66 14.68 -7 14 C-5.92481882 11.55667274 -4.80191434 9.23245477 -3.5625 6.875 C-3.22412109 6.21628906 -2.88574219 5.55757812 -2.53710938 4.87890625 C-1.69850074 3.24893453 -0.85015189 1.62398091 0 0 Z " fill="#80102C" transform="translate(142,178)"/>
<path d="M0 0 C2.76101388 5.15389258 2.76101388 5.15389258 3 8 C1.671875 10.359375 1.671875 10.359375 -0.25 12.75 C-1.18585938 13.94882813 -1.18585938 13.94882813 -2.140625 15.171875 C-4 17 -4 17 -7 17 C-5.49637741 13.21283842 -3.94512999 9.44754813 -2.375 5.6875 C-1.92898437 4.61886719 -1.48296875 3.55023438 -1.0234375 2.44921875 C-0.68570313 1.64097656 -0.34796875 0.83273438 0 0 Z " fill="#F5ECEE" transform="translate(173,159)"/>
<path d="M0 0 C0.66 0.33 1.32 0.66 2 1 C-1.24007034 9.70498897 -4.48590385 18.40080002 -8 27 C-8.33 27 -8.66 27 -9 27 C-8.54490547 21.90294131 -7.67923025 17.68346956 -5.75390625 12.94921875 C-4.85641365 10.73327283 -4.85641365 10.73327283 -4 7.25 C-3.05705415 4.18542599 -2.09561097 2.3813761 0 0 Z " fill="#740F2C" transform="translate(179,139)"/>
<path d="M0 0 C2.55762679 0.74597448 4.70073775 1.54850255 7 2.875 C4.36 3.535 1.72 4.195 -1 4.875 C-1.33 6.525 -1.66 8.175 -2 9.875 C-2.66 9.875 -3.32 9.875 -4 9.875 C-4.33 9.215 -4.66 8.555 -5 7.875 C-5.66 8.865 -6.32 9.855 -7 10.875 C-7.48148148 4.61574074 -7.48148148 4.61574074 -5.375 1.375 C-3 -0.125 -3 -0.125 0 0 Z " fill="#191919" transform="translate(79,45.125)"/>
<path d="M0 0 C3.63 0 7.26 0 11 0 C11 1.98 11 3.96 11 6 C7.37 6 3.74 6 0 6 C0.99 5.34 1.98 4.68 3 4 C2.01 2.68 1.02 1.36 0 0 Z " fill="#222021" transform="translate(36,70)"/>
<path d="M0 0 C-0.93441535 1.27310312 -1.87267111 2.543388 -2.8125 3.8125 C-3.59560547 4.87404297 -3.59560547 4.87404297 -4.39453125 5.95703125 C-5.83128877 7.78531393 -7.31815763 9.39896688 -9 11 C-9 8.66666667 -9 6.33333333 -9 4 C-10.65 4.33 -12.3 4.66 -14 5 C-14 4.34 -14 3.68 -14 3 C-9.03006806 0.56574762 -5.65394631 -0.34615998 0 0 Z " fill="#721B32" transform="translate(97,98)"/>
<path d="M0 0 C0.66 0.33 1.32 0.66 2 1 C1.67 1.33 1.34 1.66 1 2 C0.83333333 5.5 0.83333333 5.5 1 9 C2.06645115 10.29633621 2.06645115 10.29633621 4.5625 10.0625 C5.366875 10.041875 6.17125 10.02125 7 10 C6.67 8.68 6.34 7.36 6 6 C5.34 6 4.68 6 4 6 C3.67 6.99 3.34 7.98 3 9 C3 6.69 3 4.38 3 2 C3.33 2.99 3.66 3.98 4 5 C5.32796291 5.35412344 6.66216607 5.68521554 8 6 C9.75 7.4375 9.75 7.4375 11 9 C11 9.66 11 10.32 11 11 C8.44003219 12.67382511 7.04169676 13.00085095 3.9375 12.9375 C1 12 1 12 -0.9375 9.8125 C-2.22380527 6.40757429 -1.94805018 4.476184 -1 1 C-0.67 0.67 -0.34 0.34 0 0 Z " fill="#686868" transform="translate(208,34)"/>
<path d="M0 0 C1.98 0 3.96 0 6 0 C4.85485202 5.41342681 3.65987191 7.9342948 -1 11 C-1.66 10.34 -2.32 9.68 -3 9 C-2.34 9 -1.68 9 -1 9 C-1 8.34 -1 7.68 -1 7 C-1.99 6.67 -2.98 6.34 -4 6 C-3.01 5.34 -2.02 4.68 -1 4 C-0.27617533 1.94074861 -0.27617533 1.94074861 0 0 Z " fill="#313030" transform="translate(168,64)"/>
<path d="M0 0 C0.94875 0.04125 1.8975 0.0825 2.875 0.125 C3.535 1.445 4.195 2.765 4.875 4.125 C-5.025 4.125 -14.925 4.125 -25.125 4.125 C-25.125 3.795 -25.125 3.465 -25.125 3.125 C-24.52961426 3.10518066 -23.93422852 3.08536133 -23.32080078 3.06494141 C-20.63007847 2.96983874 -17.94014852 2.86010158 -15.25 2.75 C-14.31285156 2.7190625 -13.37570313 2.688125 -12.41015625 2.65625 C-11.06630859 2.59824219 -11.06630859 2.59824219 -9.6953125 2.5390625 C-8.86789551 2.5076416 -8.04047852 2.4762207 -7.18798828 2.44384766 C-3.85825217 1.92921625 -3.70420859 0.14816834 0 0 Z " fill="#FAE6EA" transform="translate(123.125,183.875)"/>
<path d="M0 0 C0.93423645 3.01031744 1.04449911 3.86650268 0 7 C-0.66 7 -1.32 7 -2 7 C-2.0825 8.0725 -2.165 9.145 -2.25 10.25 C-3.07249872 14.36249361 -3.94413508 15.3261182 -7 18 C-7.33 18.99 -7.66 19.98 -8 21 C-10.0625 21.6875 -10.0625 21.6875 -12 22 C-11.45730469 20.98679688 -10.91460937 19.97359375 -10.35546875 18.9296875 C-9.63277031 17.57814756 -8.91011643 16.22658379 -8.1875 14.875 C-7.83107422 14.20984375 -7.47464844 13.5446875 -7.10742188 12.859375 C-5.4624593 9.78072945 -3.85069104 6.69863616 -2.30078125 3.5703125 C-1 1 -1 1 0 0 Z " fill="#7C1E39" transform="translate(48,153)"/>
<path d="M0 0 C0 1.65 0 3.3 0 5 C-0.66 5 -1.32 5 -2 5 C-1.484375 5.78375 -0.96875 6.5675 -0.4375 7.375 C0.036875 8.24125 0.51125 9.1075 1 10 C0.67 10.66 0.34 11.32 0 12 C-3.32514612 10.62407747 -5.33181293 9.24369708 -7 6 C-6.4375 3.3125 -6.4375 3.3125 -5 1 C-3.19863649 0.29037195 -1.91823096 0 0 0 Z " fill="#252525" transform="translate(30,61)"/>
<path d="M0 0 C2.20892755 2.20892755 2.9725568 4.32599822 4.13671875 7.1796875 C5.37174545 9.78386145 7.1068811 11.84576125 9 14 C8.01 14.33 7.02 14.66 6 15 C5.34 14.67 4.68 14.34 4 14 C3.34 14.66 2.68 15.32 2 16 C0.24836544 12.22777911 -0.22490027 9.333361 -0.125 5.1875 C-0.10695312 4.21167969 -0.08890625 3.23585937 -0.0703125 2.23046875 C-0.04710937 1.49441406 -0.02390625 0.75835937 0 0 Z " fill="#2E2D2D" transform="translate(146,55)"/>
<path d="M0 0 C0.66 0.33 1.32 0.66 2 1 C1.34 2.98 0.68 4.96 0 7 C1.54950268 8.54950268 3.09990594 8.21655193 5.25390625 8.31640625 C6.10791016 8.35830078 6.96191406 8.40019531 7.84179688 8.44335938 C8.73962891 8.48267578 9.63746094 8.52199219 10.5625 8.5625 C11.46419922 8.60568359 12.36589844 8.64886719 13.29492188 8.69335938 C15.52978485 8.79978142 17.76476308 8.90179988 20 9 C20 9.33 20 9.66 20 10 C11.75 10 3.5 10 -5 10 C-3.35 6.7 -1.7 3.4 0 0 Z " fill="#6D0B29" transform="translate(104,102)"/>
<path d="M0 0 C0.69921875 1.703125 0.69921875 1.703125 1 4 C-0.29296875 6.296875 -0.29296875 6.296875 -2.1875 8.75 C-5.35725525 13.02283008 -7.76789771 17.17865904 -10 22 C-10.66 21.34 -11.32 20.68 -12 20 C-11.625 16.875 -11.625 16.875 -11 14 C-10.01 13.67 -9.02 13.34 -8 13 C-8 12.34 -8 11.68 -8 11 C-7.34 11 -6.68 11 -6 11 C-5.9175 10.2575 -5.835 9.515 -5.75 8.75 C-4.85402764 5.46476803 -3.48719278 4.25401846 -1 2 C-0.67 1.34 -0.34 0.68 0 0 Z " fill="#76132E" transform="translate(192,116)"/>
<path d="M0 0 C0.94875 0.04125 1.8975 0.0825 2.875 0.125 C2.875 0.455 2.875 0.785 2.875 1.125 C1.225 1.125 -0.425 1.125 -2.125 1.125 C-1.795 2.775 -1.465 4.425 -1.125 6.125 C-0.465 6.125 0.195 6.125 0.875 6.125 C1.535 7.775 2.195 9.425 2.875 11.125 C0 11.25 0 11.25 -3.125 11.125 C-5.125 9.125 -5.125 9.125 -5.375 5.625 C-5.05328869 1.12104166 -4.56738407 0.18269536 0 0 Z " fill="#E8E8E8" transform="translate(213.125,33.875)"/>
<path d="M0 0 C0.66 0.66 1.32 1.32 2 2 C1.67 2.66 1.34 3.32 1 4 C5.2020187 2.66781128 5.2020187 2.66781128 9.1875 0.8125 C11 0 11 0 14 1 C7.56479472 4.64079463 2.41216681 6.64134677 -5 7 C-3.35 4.69 -1.7 2.38 0 0 Z " fill="#71112E" transform="translate(133,195)"/>
<path d="M0 0 C0.66 0.33 1.32 0.66 2 1 C0.78359051 3.2577526 -0.4471923 5.50542161 -1.6875 7.75 C-2.02716797 8.38421875 -2.36683594 9.0184375 -2.71679688 9.671875 C-4.95806658 13.69359261 -7.1408377 16.32359322 -11 19 C-11 18.01 -11 17.02 -11 16 C-10.34 16 -9.68 16 -9 16 C-8.79375 14.989375 -8.5875 13.97875 -8.375 12.9375 C-7.26364488 8.94635605 -5.13572414 6.46775416 -2.33984375 3.48046875 C-0.89875537 2.02133684 -0.89875537 2.02133684 0 0 Z " fill="#F8DCE3" transform="translate(139,182)"/>
<path d="M0 0 C0.66 0.99 1.32 1.98 2 3 C0.39598746 6.20802508 -2.80337227 6.63001669 -6 8 C-6.33 8.66 -6.66 9.32 -7 10 C-9.28515625 10.4140625 -9.28515625 10.4140625 -12.0625 10.625 C-12.98160156 10.69976562 -13.90070312 10.77453125 -14.84765625 10.8515625 C-15.91306641 10.92503906 -15.91306641 10.92503906 -17 11 C-14.57169709 9.38113139 -12.19015821 7.99950457 -9.625 6.625 C-6.12259621 4.69953495 -3.02538149 2.63500968 0 0 Z " fill="#6E152E" transform="translate(22,191)"/>
<path d="M0 0 C0.33 0 0.66 0 1 0 C0.67 3.63 0.34 7.26 0 11 C-0.99 11.33 -1.98 11.66 -3 12 C-3.80212628 13.87387216 -3.80212628 13.87387216 -4.1875 16.0625 C-4.34605469 16.79597656 -4.50460938 17.52945313 -4.66796875 18.28515625 C-4.77753906 18.85105469 -4.88710937 19.41695312 -5 20 C-5.66 19.67 -6.32 19.34 -7 19 C-5.17778624 12.38757278 -2.94776396 6.19479329 0 0 Z " fill="#7A1C37" transform="translate(150,159)"/>
<path d="M0 0 C0.99 0.33 1.98 0.66 3 1 C1.45730076 5.72065967 -0.07794619 10.41664092 -2 15 C-2.66 15 -3.32 15 -4 15 C-3.50341703 9.33895411 -2.45489316 5.12325529 0 0 Z " fill="#7D1431" transform="translate(53,136)"/>
<path d="M0 0 C1.258125 -0.04125 2.51625 -0.0825 3.8125 -0.125 C4.52019531 -0.14820313 5.22789063 -0.17140625 5.95703125 -0.1953125 C8 0 8 0 11 2 C10 4 10 4 8.375 4.6875 C5.12574921 5.115033 2.21226196 4.55596842 -1 4 C-0.67 2.68 -0.34 1.36 0 0 Z " fill="#1F1F1F" transform="translate(112,44)"/>
<path d="M0 0 C2.48936754 2.48936754 2.92179819 3.48091869 3 7 C1.26259458 10.26108239 -0.64837877 13.32418939 -4 15 C-2.9318153 9.88634986 -1.76892524 4.92772031 0 0 Z " fill="#F0D3DB" transform="translate(178,144)"/>
<path d="M0 0 C7.92 0 15.84 0 24 0 C23.01 1.485 23.01 1.485 22 3 C14.74 2.34 7.48 1.68 0 1 C0 0.67 0 0.34 0 0 Z " fill="#781E36" transform="translate(102,188)"/>
<path d="M0 0 C-1.44781793 3.44428265 -3.27694609 5.36130962 -6.125 7.75 C-7.21167969 8.67039063 -7.21167969 8.67039063 -8.3203125 9.609375 C-8.87460938 10.06828125 -9.42890625 10.5271875 -10 11 C-10 6.91565842 -8.43988293 4.22828047 -6 1 C-3.7402279 0.00304172 -2.4328094 0 0 0 Z " fill="#7D1C38" transform="translate(159,184)"/>
<path d="M0 0 C2.64 0.33 5.28 0.66 8 1 C7.67 1.99 7.34 2.98 7 4 C7 3.34 7 2.68 7 2 C5.35 2 3.7 2 2 2 C1.8453125 2.928125 1.8453125 2.928125 1.6875 3.875 C1 6 1 6 -2 8 C-4.33199388 8.07905064 -6.66832622 8.08798769 -9 8 C-7.68 7.34 -6.36 6.68 -5 6 C-5 5.34 -5 4.68 -5 4 C-3.02 4 -1.04 4 1 4 C0.67 2.68 0.34 1.36 0 0 Z " fill="#D3D1D2" transform="translate(198,64)"/>
<path d="M0 0 C0.928125 0.2784375 0.928125 0.2784375 1.875 0.5625 C4.04160178 1.23686176 4.04160178 1.23686176 6 0 C6 2.64 6 5.28 6 8 C5.34 8 4.68 8 4 8 C3.34 8.66 2.68 9.32 2 10 C0 3.375 0 3.375 0 0 Z " fill="#F3F2F2" transform="translate(95,59)"/>
<path d="M0 0 C0.33 0.66 0.66 1.32 1 2 C-0.87275021 6.05762545 -2.89879743 8.19947204 -7 10 C-9.16015625 9.5703125 -9.16015625 9.5703125 -11 9 C-10.37351563 8.51789063 -9.74703125 8.03578125 -9.1015625 7.5390625 C-7.87566406 6.59160156 -7.87566406 6.59160156 -6.625 5.625 C-5.81289062 4.99851563 -5.00078125 4.37203125 -4.1640625 3.7265625 C-1.95776805 2.03226506 -1.95776805 2.03226506 0 0 Z " fill="#F6DEE7" transform="translate(157,187)"/>
<path d="M0 0 C0.33 0 0.66 0 1 0 C1 4.95 1 9.9 1 15 C-0.32 14.67 -1.64 14.34 -3 14 C-3 10.7 -3 7.4 -3 4 C-2.34 4 -1.68 4 -1 4 C-0.67 2.68 -0.34 1.36 0 0 Z " fill="#464546" transform="translate(106,72)"/>
<path d="M0 0 C1.65 0 3.3 0 5 0 C4.69381595 3.67420866 4.24228216 4.78135513 1.4375 7.3125 C0.633125 7.869375 -0.17125 8.42625 -1 9 C-1.66 8.34 -2.32 7.68 -3 7 C-2.34 7 -1.68 7 -1 7 C-0.67 4.69 -0.34 2.38 0 0 Z " fill="#211F20" transform="translate(200,66)"/>
<path d="M0 0 C4.75 1.875 4.75 1.875 7 3 C6.67 3.66 6.34 4.32 6 5 C7.65 5.33 9.3 5.66 11 6 C10.34 6.66 9.68 7.32 9 8 C6.19245361 8 4.58733067 7.57615862 2.5625 5.58984375 C1.32367881 4.10114669 0.15673922 2.55333552 -1 1 C-0.67 0.67 -0.34 0.34 0 0 Z " fill="#2A2A2A" transform="translate(181,68)"/>
<path d="M0 0 C1.32 0.66 2.64 1.32 4 2 C3.67 2.66 3.34 3.32 3 4 C2.34 4 1.68 4 1 4 C1 5.32 1 6.64 1 8 C2.32 8.33 3.64 8.66 5 9 C3.35 9 1.7 9 0 9 C0 8.01 0 7.02 0 6 C-1.32 6.99 -2.64 7.98 -4 9 C-3.46930939 5.17902761 -2.50298434 2.93828597 0 0 Z " fill="#EDEFEF" transform="translate(127,194)"/>
<path d="M0 0 C3 0 3 0 6 1 C3.03 4.96 3.03 4.96 0 9 C-0.66 8.67 -1.32 8.34 -2 8 C-1.125 2.25 -1.125 2.25 0 0 Z " fill="#F6E5E6" transform="translate(65,108)"/>
<path d="M0 0 C1.32 0.33 2.64 0.66 4 1 C1.88601036 5.84455959 1.88601036 5.84455959 0 8 C-2.80114625 8.94084301 -4.99722529 8.94995375 -8 9 C-8 8.34 -8 7.68 -8 7 C-6.02 6.67 -4.04 6.34 -2 6 C-1.34 4.02 -0.68 2.04 0 0 Z " fill="#7E1533" transform="translate(120,192)"/>
<path d="M0 0 C0.66 0.33 1.32 0.66 2 1 C1.67 2.32 1.34 3.64 1 5 C0.34 5 -0.32 5 -1 5 C-1 7.31 -1 9.62 -1 12 C-1.33 11.01 -1.66 10.02 -2 9 C-2.66 9 -3.32 9 -4 9 C-4.25 6.1875 -4.25 6.1875 -4 3 C-2 1.125 -2 1.125 0 0 Z " fill="#1A1919" transform="translate(107,67)"/>
<path d="M0 0 C0.66 0.33 1.32 0.66 2 1 C2.99 0.67 3.98 0.34 5 0 C5 0.99 5 1.98 5 3 C5.99 3.33 6.98 3.66 8 4 C7.21625 4.45375 6.4325 4.9075 5.625 5.375 C2.96301969 6.88428742 2.96301969 6.88428742 1 9 C0.34 8.01 -0.32 7.02 -1 6 C-0.67 5.34 -0.34 4.68 0 4 C0 2.68 0 1.36 0 0 Z " fill="#2F2F2F" transform="translate(106,45)"/>
<path d="M0 0 C1.32 0 2.64 0 4 0 C3 2 3 2 1 3 C1 3.66 1 4.32 1 5 C1.66 5.33 2.32 5.66 3 6 C2.67 7.65 2.34 9.3 2 11 C-2.875 6.25 -2.875 6.25 -4 4 C-3.34 4 -2.68 4 -2 4 C-1.34 2.68 -0.68 1.36 0 0 Z " fill="#E5E4E5" transform="translate(203,41)"/>
<path d="M0 0 C2.3125 -0.25 2.3125 -0.25 5 0 C6.04625409 1.29735507 7.04701223 2.63266972 8 4 C10.09415804 4.79623822 10.09415804 4.79623822 12 5 C12 5.99 12 6.98 12 8 C6.80421104 6.63919813 3.86388964 4.58789752 0 1 C0 0.67 0 0.34 0 0 Z " fill="#F2D1DA" transform="translate(79,177)"/>
<path d="M0 0 C2.93200474 2.85276137 5.64315404 5.65079784 8 9 C6.68 9.33 5.36 9.66 4 10 C4 9.01 4 8.02 4 7 C2.68 6.67 1.36 6.34 0 6 C-0.38218767 4.34385343 -0.71395102 2.67542976 -1 1 C-0.67 0.67 -0.34 0.34 0 0 Z " fill="#7B122E" transform="translate(75,173)"/>
<path d="M0 0 C0.33 0 0.66 0 1 0 C1.07347656 1.08667969 1.07347656 1.08667969 1.1484375 2.1953125 C1.55206152 7.41458867 2.01275807 12.09813658 4 17 C2.0625 16.1875 2.0625 16.1875 0 15 C-1.67479795 9.97560615 -1.23615622 5.09914442 0 0 Z " fill="#7A2039" transform="translate(71,155)"/>
<path d="M0 0 C0.33 0 0.66 0 1 0 C0.979375 1.11375 0.95875 2.2275 0.9375 3.375 C0.73619282 6.83215921 0.73619282 6.83215921 2 9 C1.01 9.33 0.02 9.66 -1 10 C-2.37195574 11.29355827 -3.71182656 12.62298702 -5 14 C-3.45730076 9.27934033 -1.92205381 4.58335908 0 0 Z " fill="#EFD4D9" transform="translate(83,119)"/>
<path d="M0 0 C-0.66 1.65 -1.32 3.3 -2 5 C-4.31 5 -6.62 5 -9 5 C-9 3.68 -9 2.36 -9 1 C-5.846632 0.29925156 -3.27275026 0 0 0 Z " fill="#1A1819" transform="translate(167,71)"/>
<path d="M0 0 C0 0.99 0 1.98 0 3 C-0.7425 3.2475 -1.485 3.495 -2.25 3.75 C-5.20124062 5.09147301 -6.84814974 6.60905526 -9 9 C-9.33 8.34 -9.66 7.68 -10 7 C-9.34 7 -8.68 7 -8 7 C-8 6.34 -8 5.68 -8 5 C-8.66 4.67 -9.32 4.34 -10 4 C-8.71086513 3.32845067 -7.41859796 2.66291141 -6.125 2 C-5.40570313 1.62875 -4.68640625 1.2575 -3.9453125 0.875 C-2 0 -2 0 0 0 Z " fill="#F3E1E3" transform="translate(220,99)"/>
<path d="M0 0 C0.33 0 0.66 0 1 0 C1.59244521 6.66500865 -0.51677155 11.86952975 -3 18 C-3.66 18 -4.32 18 -5 18 C-4.71125 17.38125 -4.4225 16.7625 -4.125 16.125 C-2.83936633 12.55379537 -2.15003834 9.03078702 -1.46484375 5.3046875 C-1 3 -1 3 0 0 Z " fill="#EFCCD6" transform="translate(152,145)"/>
<path d="M0 0 C1.65 0 3.3 0 5 0 C5 1.98 5 3.96 5 6 C3.35 6 1.7 6 0 6 C0 4.02 0 2.04 0 0 Z " fill="#212121" transform="translate(136,34)"/>
<path d="M0 0 C3.96 1.32 7.92 2.64 12 4 C11.01 5.485 11.01 5.485 10 7 C6 7 6 7 4.4375 5.625 C3.963125 5.08875 3.48875 4.5525 3 4 C2.01 3.34 1.02 2.68 0 2 C0 1.34 0 0.68 0 0 Z " fill="#7A1633" transform="translate(86,183)"/>
<path d="M0 0 C0.66 0.99 1.32 1.98 2 3 C0.88200014 4.33920838 -0.24461897 5.67122556 -1.375 7 C-2.31472656 8.11375 -2.31472656 8.11375 -3.2734375 9.25 C-3.84320313 9.8275 -4.41296875 10.405 -5 11 C-5.66 11 -6.32 11 -7 11 C-7.33 10.01 -7.66 9.02 -8 8 C-7.34 8 -6.68 8 -6 8 C-5.67 7.01 -5.34 6.02 -5 5 C-4.34 5 -3.68 5 -3 5 C-1.3553326 2.53673288 -1.3553326 2.53673288 0 0 Z " fill="#F7DEE4" transform="translate(29,180)"/>
<path d="M0 0 C0 0.99 0 1.98 0 3 C0.31088368 4.67099977 0.64080332 6.33871537 1 8 C-0.32 8 -1.64 8 -3 8 C-3 8.99 -3 9.98 -3 11 C-3.66 11 -4.32 11 -5 11 C-4.54663921 6.12637153 -3.2910841 3.60957611 0 0 Z " fill="#323031" transform="translate(183,47)"/>
<path d="M0 0 C0.33 0.99 0.66 1.98 1 3 C1.65129797 4.34090759 2.31513275 5.67592331 3 7 C1.875 8.5 1.875 8.5 0 10 C-3.1875 10.1875 -3.1875 10.1875 -6 10 C-6 9.67 -6 9.34 -6 9 C-4.35 9 -2.7 9 -1 9 C-1.66 7.02 -2.32 5.04 -3 3 C-2.01 2.01 -1.02 1.02 0 0 Z " fill="#D6D6D6" transform="translate(174,45)"/>
<path d="M0 0 C1 3 1 3 0.375 4.875 C-1.41124809 7.63556523 -3.61994954 9.74521536 -6 12 C-6.33 11.34 -6.66 10.68 -7 10 C-3.535 5.05 -3.535 5.05 0 0 Z " fill="#F4D4DF" transform="translate(165,176)"/>
<path d="M0 0 C2.1875 0.3125 2.1875 0.3125 4 1 C3 3 2 5 1 7 C0.34 7 -0.32 7 -1 7 C-1.66 5.68 -2.32 4.36 -3 3 C-1.75 1.4375 -1.75 1.4375 0 0 Z " fill="#F8E7E9" transform="translate(59,117)"/>
<path d="M0 0 C4.05281712 1.22527029 7.44360764 2.69880494 11 5 C10.34 5.66 9.68 6.32 9 7 C6.375 6.625 6.375 6.625 4 6 C3.67 5.01 3.34 4.02 3 3 C2.01 2.67 1.02 2.34 0 2 C0 1.34 0 0.68 0 0 Z " fill="#F7E0E5" transform="translate(131,114)"/>
<path d="M0 0 C0.33 0 0.66 0 1 0 C1.66 4.29 2.32 8.58 3 13 C1.68 13.33 0.36 13.66 -1 14 C-1.38133299 12.0085944 -1.71325582 10.00720923 -2 8 C-1.67 7.67 -1.34 7.34 -1 7 C-0.63239269 4.67182036 -0.29758419 2.3381615 0 0 Z " fill="#E6E6E6" transform="translate(177,56)"/>
<path d="M0 0 C0.66 0.66 1.32 1.32 2 2 C-0.64 4.64 -3.28 7.28 -6 10 C-6.33 8.68 -6.66 7.36 -7 6 C-5.68 5.67 -4.36 5.34 -3 5 C-3 4.01 -3 3.02 -3 2 C-2.01 1.34 -1.02 0.68 0 0 Z " fill="#751B34" transform="translate(202,106)"/>
<path d="M0 0 C0.99 0 1.98 0 3 0 C3 0.66 3 1.32 3 2 C5.31 2.66 7.62 3.32 10 4 C10 4.66 10 5.32 10 6 C6.7 6 3.4 6 0 6 C0.99 5.34 1.98 4.68 3 4 C2.01 2.68 1.02 1.36 0 0 Z " fill="#161415" transform="translate(36,70)"/>
<path d="M0 0 C3 1.8125 3 1.8125 6 4 C6 4.99 6 5.98 6 7 C3.625 6.75 3.625 6.75 1 6 C-0.375 4.0625 -0.375 4.0625 -1 2 C-0.67 1.34 -0.34 0.68 0 0 Z " fill="#2B2A2B" transform="translate(109,69)"/>
<path d="M0 0 C0.33 0 0.66 0 1 0 C0.67 2.97 0.34 5.94 0 9 C-0.99 9 -1.98 9 -3 9 C-3 6.69 -3 4.38 -3 2 C-2.01 2 -1.02 2 0 2 C0 1.34 0 0.68 0 0 Z " fill="#312F30" transform="translate(96,63)"/>
<path d="M0 0 C1.98 0 3.96 0 6 0 C6 0.66 6 1.32 6 2 C5.01 2 4.02 2 3 2 C3.33 4.64 3.66 7.28 4 10 C3.01 10 2.02 10 1 10 C0.34 9.34 -0.32 8.68 -1 8 C-0.34 7.34 0.32 6.68 1 6 C0.67801034 2.90073181 0.67801034 2.90073181 0 0 Z " fill="#161515" transform="translate(90,63)"/>
<path d="M0 0 C1.9375 0.6875 1.9375 0.6875 4 2 C4.75 4.625 4.75 4.625 5 7 C3.35 6.67 1.7 6.34 0 6 C0.33 4.68 0.66 3.36 1 2 C0.34 1.67 -0.32 1.34 -1 1 C-0.67 0.67 -0.34 0.34 0 0 Z " fill="#161616" transform="translate(90,46)"/>
<path d="M0 0 C0.66 0 1.32 0 2 0 C1.67 1.98 1.34 3.96 1 6 C0.01 6 -0.98 6 -2 6 C-2.33 6.99 -2.66 7.98 -3 9 C-3.66 8.34 -4.32 7.68 -5 7 C-4.21654285 5.82780457 -3.42297164 4.66236332 -2.625 3.5 C-2.18414062 2.8503125 -1.74328125 2.200625 -1.2890625 1.53125 C-0.65097656 0.77328125 -0.65097656 0.77328125 0 0 Z " fill="#7C1F38" transform="translate(35,176)"/>
<path d="M0 0 C0.99 0 1.98 0 3 0 C3.85329541 3.09319586 4 5.79336115 4 9 C2.68 8.34 1.36 7.68 0 7 C0 4.69 0 2.38 0 0 Z " fill="#1D1D1D" transform="translate(103,46)"/>
<path d="M0 0 C0.33 0.66 0.66 1.32 1 2 C1.66 2.33 2.32 2.66 3 3 C3.33 3.66 3.66 4.32 4 5 C3.360625 5.12375 2.72125 5.2475 2.0625 5.375 C1.0415625 5.684375 1.0415625 5.684375 0 6 C-0.33 6.66 -0.66 7.32 -1 8 C-1 7.01 -1 6.02 -1 5 C-2.65 5 -4.3 5 -6 5 C-6 4.67 -6 4.34 -6 4 C-4.35 4 -2.7 4 -1 4 C-1.33 3.01 -1.66 2.02 -2 1 C-1.34 0.67 -0.68 0.34 0 0 Z " fill="#E4E4E4" transform="translate(108,40)"/>
<path d="M0 0 C1.65 0 3.3 0 5 0 C3.87548273 2.9719385 2.77706209 5.33440687 1 8 C0.34 7.67 -0.32 7.34 -1 7 C-0.67 4.69 -0.34 2.38 0 0 Z " fill="#7A132D" transform="translate(164,169)"/>
<path d="M0 0 C0.639375 0.33 1.27875 0.66 1.9375 1 C3.76794567 2.07271225 3.76794567 2.07271225 5 2 C5 3.65 5 5.3 5 7 C3.68 7.33 2.36 7.66 1 8 C0.67 5.36 0.34 2.72 0 0 Z " fill="#980A33" transform="translate(105,99)"/>
<path d="M0 0 C0.66 0 1.32 0 2 0 C4 2 4 2 4.1953125 4.1640625 C4.17210937 4.97617187 4.14890625 5.78828125 4.125 6.625 C4.10695312 7.44226562 4.08890625 8.25953125 4.0703125 9.1015625 C4.03550781 10.04128906 4.03550781 10.04128906 4 11 C0.85041169 7.57653445 0.43820891 4.55737263 0 0 Z " fill="#151515" transform="translate(147,54)"/>
<path d="M0 0 C0.99 0 1.98 0 3 0 C3 2.31 3 4.62 3 7 C1.68 6.67 0.36 6.34 -1 6 C-1 3 -1 3 0 0 Z " fill="#BFBFBF" transform="translate(217,36)"/>
<path d="M0 0 C0.66 0.33 1.32 0.66 2 1 C1.34 2.32 0.68 3.64 0 5 C-3.3 5 -6.6 5 -10 5 C-6.76527494 2.84351662 -3.62848922 1.38542316 0 0 Z " fill="#EDD2DA" transform="translate(144,197)"/>
<path d="M0 0 C-4.455 2.97 -4.455 2.97 -9 6 C-9 4.35 -9 2.7 -9 1 C-5.19495213 -0.79682816 -4.29399165 -1.07349791 0 0 Z " fill="#ECD2D8" transform="translate(81,103)"/>
<path d="M0 0 C0.66 0.33 1.32 0.66 2 1 C2 1.66 2 2.32 2 3 C2.99 2.67 3.98 2.34 5 2 C5 2.99 5 3.98 5 5 C3.02 5.99 3.02 5.99 1 7 C-1 4 -1 4 -0.625 1.8125 C-0.41875 1.214375 -0.2125 0.61625 0 0 Z " fill="#2D2D2D" transform="translate(73,52)"/>
<path d="M0 0 C2.4375 0.8125 2.4375 0.8125 5 2 C5.33 2.99 5.66 3.98 6 5 C4.02 5.33 2.04 5.66 0 6 C0 4.02 0 2.04 0 0 Z " fill="#272727" transform="translate(42,23)"/>
<path d="M0 0 C-0.33 1.32 -0.66 2.64 -1 4 C-3.3431213 3.74438677 -5.67843403 3.40729228 -8 3 C-8.33 2.34 -8.66 1.68 -9 1 C-5.846632 0.29925156 -3.27275026 0 0 0 Z " fill="#FAF6F8" transform="translate(136,202)"/>
<path d="M0 0 C-2.93828597 2.50298434 -5.17902761 3.46930939 -9 4 C-9 3.01 -9 2.02 -9 1 C-5.8035914 -0.06546953 -3.34252724 -0.07427838 0 0 Z " fill="#F5D8E1" transform="translate(14,197)"/>
<path d="M0 0 C0.66 0 1.32 0 2 0 C0.90931332 3.77545388 0.0916909 6.47043472 -3 9 C-3.66 8.01 -4.32 7.02 -5 6 C-4.360625 5.38125 -3.72125 4.7625 -3.0625 4.125 C-0.96116416 2.17402388 -0.96116416 2.17402388 0 0 Z " fill="#F8DFE5" transform="translate(41,162)"/>
<path d="M0 0 C0.33 0.66 0.66 1.32 1 2 C0.06553465 4.03144641 -0.93224776 6.03533587 -2 8 C-2.99 8 -3.98 8 -5 8 C-3.375 2.25 -3.375 2.25 0 0 Z " fill="#F0FAF4" transform="translate(88,118)"/>
<path d="M0 0 C-0.639375 0.2475 -1.27875 0.495 -1.9375 0.75 C-4.19895007 1.79688294 -4.19895007 1.79688294 -4.5625 4.0625 C-4.706875 4.701875 -4.85125 5.34125 -5 6 C-5.99 6.33 -6.98 6.66 -8 7 C-8.33 5.68 -8.66 4.36 -9 3 C-5.92807025 0.26939578 -4.09590633 -0.34132553 0 0 Z " fill="#DFDFDF" transform="translate(163,48)"/>
<path d="M0 0 C2.97 0 5.94 0 9 0 C8.67 0.99 8.34 1.98 8 3 C5.6568787 2.74438677 3.32156597 2.40729228 1 2 C0.67 1.34 0.34 0.68 0 0 Z " fill="#292929" transform="translate(156,44)"/>
<path d="M0 0 C2 1 2 1 4 4 C0.7 4.33 -2.6 4.66 -6 5 C-6 4.34 -6 3.68 -6 3 C-5.01 3 -4.02 3 -3 3 C-3 2.34 -3 1.68 -3 1 C-2.01 0.67 -1.02 0.34 0 0 Z " fill="#F0F0F0" transform="translate(160,40)"/>
<path d="M0 0 C0.66 0.66 1.32 1.32 2 2 C1.625 4.625 1.625 4.625 1 7 C-0.98 7 -2.96 7 -5 7 C-3.35 4.69 -1.7 2.38 0 0 Z " fill="#75273E" transform="translate(133,195)"/>
<path d="M0 0 C0.66 0.33 1.32 0.66 2 1 C1.8125 2.875 1.8125 2.875 1 5 C-1.5625 6.25 -1.5625 6.25 -4 7 C-4 4 -4 4 -2 1.8125 C-1.34 1.214375 -0.68 0.61625 0 0 Z " fill="#83263D" transform="translate(29,184)"/>
<path d="M0 0 C0.66 1.32 1.32 2.64 2 4 C-1.75 9.875 -1.75 9.875 -4 11 C-2.7874262 7.27566618 -1.49140021 3.62197194 0 0 Z " fill="#F0C9D9" transform="translate(173,159)"/>
<path d="M0 0 C1.98 0.99 1.98 0.99 4 2 C4 4.97 4 7.94 4 11 C3.67 11 3.34 11 3 11 C3 8.69 3 6.38 3 4 C2.34 4 1.68 4 1 4 C0.67 4.66 0.34 5.32 0 6 C0 4.02 0 2.04 0 0 Z " fill="#484848" transform="translate(103,53)"/>
<path d="M0 0 C0.99 0.33 1.98 0.66 3 1 C1.35 3.64 -0.3 6.28 -2 9 C-3 6 -3 6 -1.5625 2.8125 C-1.046875 1.884375 -0.53125 0.95625 0 0 Z " fill="#FCE2EB" transform="translate(35,171)"/>
<path d="M0 0 C2 3 2 3 2 5 C1.34 5 0.68 5 0 5 C-0.66 6.32 -1.32 7.64 -2 9 C-3 6 -3 6 -1.5625 2.8125 C-1.046875 1.884375 -0.53125 0.95625 0 0 Z " fill="#F5E0E4" transform="translate(182,136)"/>
<path d="M0 0 C-0.66 1.98 -1.32 3.96 -2 6 C-2.99 5.67 -3.98 5.34 -5 5 C-4.625 3.0625 -4.625 3.0625 -4 1 C-2 0 -2 0 0 0 Z " fill="#F6E3E8" transform="translate(54,134)"/>
<path d="M0 0 C1.32 0.66 2.64 1.32 4 2 C3.01 3.98 2.02 5.96 1 8 C0.34 7.34 -0.32 6.68 -1 6 C-0.625 2.875 -0.625 2.875 0 0 Z " fill="#7D1A37" transform="translate(181,130)"/>
<path d="M0 0 C0.33 1.32 0.66 2.64 1 4 C0.34 4 -0.32 4 -1 4 C-0.67 4.99 -0.34 5.98 0 7 C-0.99 7 -1.98 7 -3 7 C-3 3 -3 3 -1.5 1.25 C-1.005 0.8375 -0.51 0.425 0 0 Z " fill="#FAE3EC" transform="translate(199,112)"/>
<path d="M0 0 C1.04449911 3.13349732 0.93423645 3.98968256 0 7 C-1.32 6.34 -2.64 5.68 -4 5 C-2.68 3.35 -1.36 1.7 0 0 Z " fill="#8B233E" transform="translate(71,109)"/>
<path d="M0 0 C1.65 0.33 3.3 0.66 5 1 C5 1.66 5 2.32 5 3 C2.36 3.33 -0.28 3.66 -3 4 C-2.01 2.68 -1.02 1.36 0 0 Z " fill="#7F1332" transform="translate(76,105)"/>
<path d="M0 0 C1.32 0.66 2.64 1.32 4 2 C4 2.66 4 3.32 4 4 C2.02 4.33 0.04 4.66 -2 5 C-2 4.01 -2 3.02 -2 2 C-1.34 2 -0.68 2 0 2 C0 1.34 0 0.68 0 0 Z " fill="#282627" transform="translate(88,71)"/>
<path d="M0 0 C2.64 0 5.28 0 8 0 C7.01 0.495 7.01 0.495 6 1 C6 1.99 6 2.98 6 4 C5.01 4 4.02 4 3 4 C3 3.34 3 2.68 3 2 C2.01 1.67 1.02 1.34 0 1 C0 0.67 0 0.34 0 0 Z " fill="#141213" transform="translate(80,72)"/>
<path d="M0 0 C0.99 0.99 1.98 1.98 3 3 C2.34 4.32 1.68 5.64 1 7 C0.67 6.34 0.34 5.68 0 5 C-0.99 4.67 -1.98 4.34 -3 4 C-2.01 2.68 -1.02 1.36 0 0 Z " fill="#E6E6E6" transform="translate(128,69)"/>
<path d="M0 0 C6.0546875 -0.1953125 6.0546875 -0.1953125 8 0 C8.66 0.66 9.32 1.32 10 2 C7.25 2.6875 7.25 2.6875 4 3 C1.625 1.5625 1.625 1.5625 0 0 Z " fill="#262626" transform="translate(78,44)"/>
<path d="M0 0 C0.66 0.99 1.32 1.98 2 3 C1.67 3.66 1.34 4.32 1 5 C-0.98 5 -2.96 5 -5 5 C-3.35 3.35 -1.7 1.7 0 0 Z " fill="#771F35" transform="translate(22,191)"/>
<path d="M0 0 C1.60080151 4.00200378 0.29279692 7.04556236 -1 11 C-2.1875 9.4375 -2.1875 9.4375 -3 7 C-1.625 3.25 -1.625 3.25 0 0 Z " fill="#7A1732" transform="translate(142,178)"/>
<path d="M0 0 C0.66 0.33 1.32 0.66 2 1 C0.68 1.99 -0.64 2.98 -2 4 C-1.34 2.68 -0.68 1.36 0 0 Z M-4 3 C-2 5 -2 5 -2 8 C-2.99 8 -3.98 8 -5 8 C-4.67 6.35 -4.34 4.7 -4 3 Z " fill="#F6F9F8" transform="translate(162,184)"/>
<path d="M0 0 C2.35953094 2.35953094 2.49141413 3.77895617 3 7 C2.01 7 1.02 7 0 7 C-0.93423645 3.98968256 -1.04449911 3.13349732 0 0 Z " fill="#F6DDE8" transform="translate(178,144)"/>
<path d="M0 0 C1.32 0.33 2.64 0.66 4 1 C4 1.66 4 2.32 4 3 C1.69 3.33 -0.62 3.66 -3 4 C-3 3.34 -3 2.68 -3 2 C-2.01 2 -1.02 2 0 2 C0 1.34 0 0.68 0 0 Z " fill="#EDFBF6" transform="translate(220,100)"/>
<path d="M0 0 C2.475 0.99 2.475 0.99 5 2 C3.625 4 3.625 4 2 6 C1.34 6 0.68 6 0 6 C0 4.02 0 2.04 0 0 Z " fill="#242223" transform="translate(103,64)"/>
<path d="M0 0 C3.96 0.99 3.96 0.99 8 2 C8 2.33 8 2.66 8 3 C5.03 3.66 2.06 4.32 -1 5 C-1.33 4.34 -1.66 3.68 -2 3 C-1.34 2.34 -0.68 1.68 0 1 C0 0.67 0 0.34 0 0 Z " fill="#101010" transform="translate(78,45)"/>
<path d="M0 0 C1.65 0 3.3 0 5 0 C5 1.32 5 2.64 5 4 C3.35 4 1.7 4 0 4 C0 2.68 0 1.36 0 0 Z " fill="#F9F8F5" transform="translate(11,203)"/>
<path d="M0 0 C0.66 0 1.32 0 2 0 C1.01 2.97 0.02 5.94 -1 9 C-2.07349791 4.70600835 -1.79682816 3.80504787 0 0 Z " fill="#FADFEA" transform="translate(45,153)"/>
<path d="M0 0 C2.76223278 2.76223278 2.57856291 5.20706617 3 9 C0.9375 6.75 0.9375 6.75 -1 4 C-0.75 1.6875 -0.75 1.6875 0 0 Z " fill="#F2C9D7" transform="translate(150,129)"/>
<path d="M0 0 C2.31 0 4.62 0 7 0 C6.01 1.485 6.01 1.485 5 3 C2.03 2.505 2.03 2.505 -1 2 C-0.67 1.34 -0.34 0.68 0 0 Z " fill="#FBEBF0" transform="translate(123,113)"/>
<path d="M0 0 C0.33 0.66 0.66 1.32 1 2 C0.67 2.99 0.34 3.98 0 5 C-0.66 5 -1.32 5 -2 5 C-2.33 6.32 -2.66 7.64 -3 9 C-3.33 8.01 -3.66 7.02 -4 6 C-2.84338843 3.79192337 -1.77322566 1.77322566 0 0 Z " fill="#F8E1E6" transform="translate(96,99)"/>
</svg>
